<svg xmlns="http://www.w3.org/2000/svg" width="1653" height="1304" viewBox="0 0 1653 1304" fill="none">
  <!-- Background Color -->
  <rect width="100%" height="100%" fill="#030A0E"/>

  <!-- First SVG Circle - moved further up and to the right, and color darkened -->
  <g filter="url(#filter0_f_17_3)">
    <path d="M2200 -250C2200 50 1900 200 1650 200C1400 200 1100 50 1100 -250C1100 -550 1400 -700 1650 -700C1900 -700 2200 -550 2200 -250Z" fill="#4A97B3"/>
  </g>

  <!-- Second SVG Circle - moved slightly up and to the left, and color darkened -->
  <g filter="url(#filter0_f_17_4)">
    <path d="M550 850C550 1040 320 1200 50 1200C-220 1200 -450 1040 -450 850C-450 660 -220 500 50 500C320 500 550 660 550 850Z" fill="#062B39"/>
  </g>

  <!-- Combined Filters and Definitions -->
  <defs>
    <!-- Filter for the first SVG -->
    <filter id="filter0_f_17_3" x="0" y="-1178" width="2894" height="2492" filterUnits="userSpaceOnUse" color-interpolation-filters="sRGB">
      <feFlood flood-opacity="0" result="BackgroundImageFix"/>
      <feBlend mode="normal" in="SourceGraphic" in2="BackgroundImageFix" result="shape"/>
      <feGaussianBlur stdDeviation="499.5" result="effect1_foregroundBlur_17_3"/>
    </filter>

    <!-- Filter for the second SVG -->
    <filter id="filter0_f_17_4" x="-1390" y="-380" width="3043" height="2683" filterUnits="userSpaceOnUse" color-interpolation-filters="sRGB">
      <feFlood flood-opacity="0" result="BackgroundImageFix"/>
      <feBlend mode="normal" in="SourceGraphic" in2="BackgroundImageFix" result="shape"/>
      <feGaussianBlur stdDeviation="499.5" result="effect1_foregroundBlur_17_4"/>
    </filter>
  </defs>
</svg>